<svg width="1440" height="5400" viewBox="0 0 1440 5400" fill="none" xmlns="http://www.w3.org/2000/svg">
<path d="M432 579.5L769.5 291.5C1038 91.1666 1490.4 -189.3 1152 291.5C729 892.5 2451.5 544 1503.5 904C745.1 1192 605.167 1190.33 630 1153.5L116.5 870L94 375L-189.5 147.5L-173.5 1417L450 1568L695 1746L1238 1950.5C1376 2097.67 1585.8 2399.2 1321 2428C748.2 2356 873.667 2717.67 1008 2907.5" stroke="#0F0858" stroke-width="2"/>
<path d="M1547.52 4784.22L894.523 3386.22L291.523 3417.72C152.023 3176.06 -21.6773 2734.12 399.523 2899.72C820.723 3067.32 837.689 2877.89 793.523 2762.22C458.856 2785.56 -110.077 2800.72 291.523 2674.72C693.123 2548.72 922.523 2562.22 987.023 2584.72C1163.36 2850.22 1419.22 3374.52 1032.02 3347.72C644.823 3320.92 362.023 3686.22 269.023 3872.22C644.856 3836.22 1307.82 3850.22 953.023 4194.22C598.223 4538.22 300.856 4442.56 196.523 4351.72C211.523 4278.89 210.923 4104.42 88.5227 3989.22C-33.8773 3874.02 306.189 3984.89 491.523 4054.72C673.189 4447.72 1076.12 5127.52 1234.52 4702.72C357.323 4859.52 244.689 5196.06 298.023 5344.72L1414.52 5414.22L710.023 5612.22C526.189 5479.56 249.023 5197.52 611.023 5130.72C973.023 5063.92 596.856 4862.89 363.523 4770.72L82.0227 4608.22C454.856 4684.72 1074.02 4789.12 568.023 4594.72C-64.4773 4351.72 -770.977 4799.72 82.0227 5162.22C764.423 5452.22 735.356 5754.39 635.523 5869.22L70.5227 5788.22C464.523 5693.06 1212.92 5567.02 1054.52 5824.22C896.123 6081.42 854.856 6111.39 854.023 6094.22L273.523 6240.72C-143.144 6075.56 -748.177 5783.02 165.023 5934.22C1026.22 6031.42 1253.52 6296.06 1259.52 6416.22" stroke="#0F0858" stroke-width="6"/>
<path d="M1548.5 2171.5L895.5 773.5L292.5 805C153 563.333 -20.6998 121.4 400.5 287C821.7 454.6 838.667 265.167 794.5 149.5C459.834 172.833 -109.1 188 292.5 62C694.1 -64 923.5 -50.5 988 -28C1164.33 237.5 1420.2 761.8 1033 735C645.8 708.2 363 1073.5 270 1259.5C645.834 1223.5 1308.8 1237.5 954 1581.5C599.2 1925.5 301.834 1829.83 197.5 1739C212.5 1666.17 211.9 1491.7 89.5002 1376.5C-32.8998 1261.3 307.167 1372.17 492.5 1442C674.167 1835 1077.1 2514.8 1235.5 2090C358.3 2246.8 245.667 2583.33 299 2732L1415.5 2801.5L711 2999.5C527.167 2866.83 250 2584.8 612 2518C974 2451.2 597.834 2250.17 364.5 2158L83.0003 1995.5C455.834 2072 1075 2176.4 569 1982C-63.4998 1739 -770 2187 83.0003 2549.5C765.4 2839.5 736.334 3141.67 636.5 3256.5L71.5002 3175.5C465.5 3080.33 1213.9 2954.3 1055.5 3211.5C897.1 3468.7 855.834 3498.67 855 3481.5L274.5 3628C-142.166 3462.83 -747.2 3170.3 166 3321.5C1027.2 3418.7 1254.5 3683.33 1260.5 3803.5" stroke="#0F0858" stroke-width="6"/>
</svg>
