<svg width="1440" height="2833" viewBox="0 0 1440 2833" fill="none" xmlns="http://www.w3.org/2000/svg">
<path d="M1547.52 2217.22L894.523 819.223L291.523 850.723C152.023 609.056 -21.6773 167.123 399.523 332.723C820.723 500.323 837.689 310.89 793.523 195.223C458.856 218.556 -110.077 233.723 291.523 107.723C693.123 -18.2771 922.523 -4.77706 987.023 17.7229C1163.36 283.223 1419.22 807.523 1032.02 780.723C644.823 753.923 362.023 1119.22 269.023 1305.22C644.856 1269.22 1307.82 1283.22 953.023 1627.22C598.223 1971.22 300.856 1875.56 196.523 1784.72C211.523 1711.89 210.923 1537.42 88.5227 1422.22C-33.8773 1307.02 306.189 1417.89 491.523 1487.72C673.189 1880.72 1076.12 2560.52 1234.52 2135.72C357.323 2292.52 244.689 2629.06 298.023 2777.72L1414.52 2847.22L710.023 3045.22C526.189 2912.56 249.023 2630.52 611.023 2563.72C973.023 2496.92 596.856 2295.89 363.523 2203.72L82.0227 2041.22C454.856 2117.72 1074.02 2222.12 568.023 2027.72C-64.4773 1784.72 -770.977 2232.72 82.0227 2595.22C764.423 2885.22 735.356 3187.39 635.523 3302.22L70.5227 3221.22C464.523 3126.06 1212.92 3000.02 1054.52 3257.22C896.123 3514.42 854.856 3544.39 854.023 3527.22L273.523 3673.72C-143.144 3508.56 -748.177 3216.02 165.023 3367.22C1026.22 3464.42 1253.52 3729.06 1259.52 3849.22" stroke="#0F0858" stroke-width="6"/>
</svg>
