<svg width="1440" height="3804" viewBox="0 0 1440 3804" fill="none" xmlns="http://www.w3.org/2000/svg">
<path d="M1548.5 2171.5L895.5 773.5L292.5 805C153 563.333 -20.6998 121.4 400.5 287C821.7 454.6 838.667 265.167 794.5 149.5C459.834 172.833 -109.1 188 292.5 62C694.1 -64 923.5 -50.5 988 -28C1164.33 237.5 1420.2 761.8 1033 735C645.8 708.2 363 1073.5 270 1259.5C645.834 1223.5 1308.8 1237.5 954 1581.5C599.2 1925.5 301.834 1829.83 197.5 1739C212.5 1666.17 211.9 1491.7 89.5002 1376.5C-32.8998 1261.3 307.167 1372.17 492.5 1442C674.167 1835 1077.1 2514.8 1235.5 2090C358.3 2246.8 245.667 2583.33 299 2732L1415.5 2801.5L711 2999.5C527.167 2866.83 250 2584.8 612 2518C974 2451.2 597.834 2250.17 364.5 2158L83.0003 1995.5C455.834 2072 1075 2176.4 569 1982C-63.4998 1739 -770 2187 83.0003 2549.5C765.4 2839.5 736.334 3141.67 636.5 3256.5L71.5002 3175.5C465.5 3080.33 1213.9 2954.3 1055.5 3211.5C897.1 3468.7 855.834 3498.67 855 3481.5L274.5 3628C-142.166 3462.83 -747.2 3170.3 166 3321.5C1027.2 3418.7 1254.5 3683.33 1260.5 3803.5" stroke="#0F0858" stroke-width="6"/>
</svg>
